<svg width="23" height="23" viewBox="0 0 23 23" fill="none" xmlns="http://www.w3.org/2000/svg">
<g id="Misc_03" clip-path="url(#clip0_730_3487)">
<g id="Group">
<g id="Group_2">
<path id="Vector" fill-rule="evenodd" clip-rule="evenodd" d="M10.2353 8.64182C8.10032 6.88682 6.37034 4.79682 5.07034 2.36182C4.81034 1.87682 4.20536 1.69182 3.71536 1.95182C3.23036 2.21182 3.04533 2.81683 3.30533 3.30683C4.73533 5.97183 6.62536 8.26183 8.96536 10.1868C9.39036 10.5368 10.0253 10.4768 10.3753 10.0518C10.7253 9.62182 10.6603 8.99182 10.2353 8.64182Z" fill="#00060C"/>
<path id="Vector_2" fill-rule="evenodd" clip-rule="evenodd" d="M9.09577 1.8066C9.20577 3.8266 9.30579 5.84659 9.43079 7.86659C9.46579 8.41659 9.94079 8.83659 10.4908 8.80159C11.0408 8.76659 11.4608 8.29159 11.4258 7.74159C11.3008 5.72659 11.2008 3.71161 11.0908 1.69161C11.0608 1.14311 10.5858 0.720603 10.0358 0.751603C9.48577 0.782603 9.06077 1.2551 9.09577 1.8066Z" fill="#00060C"/>
<path id="Vector_3" fill-rule="evenodd" clip-rule="evenodd" d="M16.5168 2.21629C15.2368 4.14629 13.7869 5.92627 12.3269 7.72627C11.9769 8.15627 12.0418 8.7863 12.4718 9.1313C12.9018 9.4813 13.5319 9.41628 13.8769 8.98628C15.3769 7.14128 16.8668 5.30627 18.1868 3.32127C18.4918 2.86127 18.3618 2.24129 17.9018 1.93629C17.4468 1.63129 16.8218 1.75629 16.5168 2.21629Z" fill="#00060C"/>
<path id="Vector_4" fill-rule="evenodd" clip-rule="evenodd" d="M21.4761 9.3916C18.0061 9.5466 14.3211 9.55161 10.8511 9.33161C10.3011 9.30161 9.8261 9.71661 9.7911 10.2716C9.7561 10.8216 10.1761 11.2966 10.7261 11.3316C14.2661 11.5516 18.0261 11.5466 21.5661 11.3916C22.1161 11.3666 22.5461 10.8966 22.5211 10.3466C22.4961 9.79662 22.0261 9.3666 21.4761 9.3916Z" fill="#00060C"/>
<path id="Vector_5" fill-rule="evenodd" clip-rule="evenodd" d="M8.96167 10.0252C11.1017 12.6452 13.3167 15.2153 15.3017 17.9553C15.6267 18.4003 16.2517 18.5002 16.7017 18.1752C17.1467 17.8502 17.2467 17.2252 16.9217 16.7802C14.9117 14.0102 12.6717 11.4102 10.5067 8.76021C10.1567 8.33521 9.52668 8.27023 9.10168 8.62023C8.67168 8.97023 8.61167 9.60023 8.96167 10.0252Z" fill="#00060C"/>
<path id="Vector_6" fill-rule="evenodd" clip-rule="evenodd" d="M9.60782 10.7859C10.1678 13.5159 10.3228 16.1259 10.3628 18.8909C10.3678 19.4409 10.8228 19.8809 11.3728 19.8759C11.9278 19.8659 12.3678 19.4159 12.3578 18.8609C12.3178 15.9659 12.1528 13.2409 11.5678 10.3809C11.4528 9.84089 10.9278 9.49086 10.3828 9.60586C9.84284 9.71586 9.49282 10.2459 9.60782 10.7859Z" fill="#00060C"/>
<path id="Vector_7" fill-rule="evenodd" clip-rule="evenodd" d="M9.69907 10.5663C8.07907 13.8063 7.24407 17.4063 5.50907 20.5763C5.24407 21.0563 5.42403 21.6663 5.90903 21.9313C6.39403 22.1963 6.99907 22.0162 7.26407 21.5362C9.00907 18.3462 9.85405 14.7263 11.489 11.4613C11.734 10.9663 11.534 10.3663 11.044 10.1163C10.549 9.87125 9.94907 10.0713 9.69907 10.5663Z" fill="#00060C"/>
<path id="Vector_8" fill-rule="evenodd" clip-rule="evenodd" d="M10.5916 9.83291C7.36661 10.4029 4.14661 10.6629 0.901607 11.0479C0.351607 11.1129 -0.038393 11.6079 0.026607 12.1579C0.091607 12.7079 0.586653 13.0979 1.13665 13.0329C4.41665 12.6479 7.67665 12.3779 10.9416 11.8029C11.4816 11.7029 11.8466 11.1829 11.7516 10.6429C11.6516 10.0979 11.1366 9.73291 10.5916 9.83291Z" fill="#00060C"/>
<path id="Vector_9" fill-rule="evenodd" clip-rule="evenodd" d="M12.8367 8.31151C12.1717 8.28151 11.5417 8.2365 10.8917 8.1415C10.3417 8.0615 9.83673 8.4415 9.75673 8.9865C9.67673 9.5315 10.0567 10.0415 10.6017 10.1215C11.3217 10.2265 12.0167 10.2765 12.7467 10.3065C13.2967 10.3315 13.7667 9.90649 13.7867 9.35149C13.8117 8.80149 13.3867 8.33651 12.8367 8.31151Z" fill="#00060C"/>
</g>
</g>
</g>
<defs>
<clipPath id="clip0_730_3487">
<rect width="23" height="23" fill="white"/>
</clipPath>
</defs>
</svg>
